<svg
   viewBox="0 0 28.109257 76.918617"
  xmlns="http://www.w3.org/2000/svg"
  aria-hidden="true"
>
  <g
     id="layer1"
     transform="translate(-84.50015,-112.18084)"><g
       id="g1"
       transform="matrix(0.06384677,0,0,0.08323421,37.401829,75.702153)"><path
         fill-rule="nonzero"
         fill="currentColor"
         fill-opacity="1"
         d="m 871.56012,1360.8608 c -1.0508,-2.7344 -0.6328,-4.3125 1.7968,-6.7461 2.3204,-2.3164 2.5118,-2.3476 5.961,-0.9023 1.9609,0.8203 4.9101,1.4804 6.539,1.4726 1.6407,-0.012 6.6719,-0.039 11.1914,-0.066 10.3907,-0.059 20.8204,-0.6094 27.6602,-1.4648 4.2617,-0.5313 5.5313,-1.1094 6.3398,-2.8789 1.129,-2.4922 3.3399,-3.3086 9.0313,-3.3243 2.1484,-0.012 4.3203,-0.4218 4.8281,-0.9179 0.5,-0.4922 2.6524,-1.0391 4.7813,-1.2071 3.6484,-0.289 4.1289,-0.7187 8.8281,-7.8867 8.5625,-13.0547 8.5625,-13.0781 8.5,-54.7148 -0.059,-41.9492 -1.8789,-77.0235 -5.8281,-112.0391 -1.5391,-13.6836 -2.2305,-16.8476 -7.0117,-32.0586 -1.6094,-5.1484 -3.3985,-12.7539 -3.9688,-16.9023 -0.9102,-6.6211 -0.8086,-8.1719 0.7891,-12.7188 3.1797,-9.0195 2.2226,-33.1679 -2.8282,-71.125 -1.0625,-7.9687 -2.1796,-16.5156 -2.5,-18.9961 -0.3906,-3.039 -1.1015,-4.6406 -2.1718,-4.9218 -0.9375,-0.2461 -3.3282,-4.5078 -5.8594,-10.461 -7.4414,-17.49224 -15.1406,-33.10154 -18.2188,-36.93754 -2.5117,-3.1211 -4.2695,-6.8867 -7.4492,-15.9648 -0.3203,-0.918 -1.0898,-0.4766 -2.5429,1.4492 -4.9571,6.6094 -18.25,18.707 -20.5469,18.707 -0.293,0 -0.5235,-2.1992 -0.5235,-4.8867 0,-3.4101 -0.3398,-4.6797 -1.1093,-4.207 -0.8086,0.5039 -0.9102,-1.8985 -0.3985,-9.1914 0.6094,-8.586 0.5,-10.0235 -0.8906,-11.0391 -0.8789,-0.6406 -1.8398,-3.1094 -2.1406,-5.4805 -0.2891,-2.371 -1.3008,-5.6171 -2.2188,-7.2109 -0.9297,-1.5937 -1.9687,-4.0937 -2.3125,-5.5508 -0.4179,-1.7578 -1.2578,-2.6562 -2.4765,-2.6562 -1.2422,0 -2.2618,-1.1211 -3.0821,-3.4063 -0.6797,-1.875 -1.7109,-3.2226 -2.3007,-3 -0.6797,0.2617 -0.9102,-0.6445 -0.629,-2.5429 0.3516,-2.3672 0.1407,-2.836 -1.0585,-2.375 -1.0821,0.414 -3.7227,-2.4219 -9.4727,-10.2032 -4.3789,-5.9297 -8.8477,-12.3125 -9.918,-14.1836 -2.4492,-4.3007 -2.4609,-4.3086 -3.0508,-3.7187 -0.2695,0.2695 0.1915,3.8164 1.0313,7.875 2.418,11.6836 1.5195,13.082 -2.8828,4.5117 -4.2578,-8.3008 -9.0899,-26.3047 -11.7695,-43.9492 -2.4688,-16.1836 -2.5079,-55.418 -0.078,-74.0078 6.8203,-52.2891 12.6875,-73.3906 25.3985,-91.3086 5.1523,-7.2578 10.1601,-11.6563 18.0507,-15.8281 6.6211,-3.5039 7.4102,-4.2813 7.4297,-7.3907 0.012,-1.1679 1.8008,-7.6015 3.9922,-14.2929 2.1875,-6.6914 3.7071,-12.4336 3.3789,-12.7578 -0.3203,-0.3243 -1.4609,0.1992 -2.5195,1.164 -1.0703,0.9649 -1.9414,1.3047 -1.9414,0.7578 0,-0.5508 0.6797,-1.5664 1.5117,-2.2539 3.0078,-2.4961 5.6797,-9.5195 3.0781,-8.0937 -0.6679,0.3633 0.4297,-0.7383 2.4414,-2.4492 3.4493,-2.9454 7.8789,-9.793 7.9375,-12.2774 0.012,-0.6289 1.0704,-2.2578 2.3516,-3.625 2.6289,-2.793 1.7188,-3.3828 -1.2109,-0.7891 -1.8399,1.6368 -1.8672,1.625 -0.8086,-0.3945 1.7383,-3.3203 8.789,-8.9219 15.6093,-12.4062 3.4493,-1.7618 8.6407,-5.2422 11.5313,-7.7305 2.8906,-2.4844 10.1094,-7.6875 16.0508,-11.5547 9.457,-6.168 24.457,-18.5351 25.3789,-20.9219 0.168,-0.4609 -3.4297,-0.8359 -8.0195,-0.8359 -6.4219,0 -9.1602,0.4336 -11.9102,1.8906 -1.9727,1.0391 -8.1602,4.0742 -13.7695,6.7461 -5.6133,2.668 -15.3907,8.1797 -21.7305,12.25 -20.2305,12.9688 -42.082,26.457 -54.5195,33.6445 -6.6407,3.836 -17.5,10.129 -24.1407,13.9844 -17.7812,10.3242 -59.6601,30.9063 -72.5117,35.6328 -16.9609,6.2344 -26.9804,8.4883 -26.9804,6.0664 0,-4.8046 29.75,-36.6211 55.121,-58.9492 19.4219,-17.0976 35.6211,-30.7539 41.4688,-34.9531 5.9922,-4.3047 31.4023,-24.0117 48.3398,-37.4883 7.7305,-6.1523 17.3711,-13.7422 21.4219,-16.8711 4.4102,-3.4219 7.6094,-6.6523 7.961,-8.0703 0.8476,-3.3828 10.3593,-22.2812 14.539,-28.9219 1.9492,-3.0898 6.4297,-8.5898 9.9688,-12.2304 11.0898,-11.4102 20.2422,-17.3399 33.6211,-21.7891 23.3007,-7.75 47.85928,-5.8594 64.21868,4.9492 7.082,4.6719 27.332,24.3906 26.4805,25.7813 -0.3203,0.5078 -0.1485,1.1914 0.3594,1.5078 0.5195,0.3125 1.9218,1.9726 3.121,3.6836 1.5118,2.1562 1.6602,2.6992 0.5,1.7695 -2.0585,-1.6601 -3.3085,-0.6914 -1.6679,1.2891 0.6562,0.8008 1.5469,3.0078 1.9883,4.9297 0.7812,3.4609 0.7695,3.4687 -1.211,1.7187 -1.9492,-1.7305 -1.9609,-1.7305 -0.8711,0.3516 0.6133,1.1679 1.461,2.3281 1.8828,2.5976 0.418,0.2617 0.6875,5.1719 0.5977,10.9219 -0.2383,15.0703 -4.4883,34.8828 -10.0703,46.9609 -6.5274,14.1368 -23.0586,39.7071 -36.6289,56.6485 -4.0313,5.0234 -8.0391,10.039 -8.918,11.1406 -1.582,1.9844 -1.5312,2.0039 5.3203,2.2227 29.1602,0.9257 55.5664,8.0117 72.5781,19.4726 2.129,1.4297 7.9883,4.9141 13.0391,7.7383 5.0508,2.8242 11.8828,6.8125 15.1914,8.8594 3.3086,2.0468 6.2813,3.7226 6.6016,3.7226 1.5781,0 20.2773,13.3086 25.7969,18.3633 6.1523,5.6367 13.4101,15.9727 17.0703,24.2969 4.5625,10.4023 9.5,43.7734 11.7812,79.7109 0.8906,13.9219 0.8789,21.5078 -0.031,33.9766 -2.2383,30.5781 -4.918,42.6484 -15.25,68.7812 -5.4375,13.7696 -5.5078,14.043 -5.8594,25.4922 -0.1992,6.3633 0.1289,14.4024 0.7305,17.8672 2.0117,11.5234 2.8984,27.2578 1.789,31.4024 l -1.039,3.8593 -2.6914,-8.0195 c -1.4805,-4.4063 -2.879,-8.2109 -3.1172,-8.4453 -0.2305,-0.2383 -2.0703,6.414 -4.0899,14.7851 -3.8633,16.0157 -11.4414,41.46494 -13.6328,45.75394 -0.7187,1.3946 -2.0976,2.7422 -3.0703,2.9961 -1.2188,0.3204 -2.1367,2.0586 -2.9492,5.586 -1.5781,6.8164 -8.0508,21.2734 -12.8086,28.5781 -4.3203,6.6523 -6.7305,8.1016 -14.6602,8.8359 l -5.5508,0.5157 v 4.75 c 0,7.2343 -1.7382,12.9023 -4.3906,14.3203 -1.2578,0.6719 -2.25,1.4844 -2.2109,1.8047 0.2305,2.0078 -0.3477,2.8711 -1.6094,2.3867 -0.8008,-0.3086 -1.4492,-0.09 -1.4492,0.4805 0,0.5703 -0.6484,0.789 -1.4492,0.4843 -0.8008,-0.3047 -1.4492,-0.1015 -1.4492,0.4571 0,0.5586 -0.8399,0.8515 -1.8711,0.6523 -4.8399,-0.9297 -7.5313,-3.8828 -9.6993,-10.6328 -0.6796,-2.125 -1.3906,-4.1289 -1.5703,-4.4492 -0.4609,-0.836 -17.3008,2.4765 -27.9922,5.5117 -8.4492,2.3945 -9.0976,2.7617 -9.1796,5.1055 -0.3399,9.789 -1.879,26.0507 -3.1407,32.9492 -0.8164,4.5117 -2.0078,14.6797 -2.6484,22.5898 -0.8594,10.7305 -1.5508,14.7891 -2.7109,15.9766 -0.8594,0.8789 -1.6993,2.4492 -1.8672,3.4883 -0.3828,2.2461 -7.7735,10.0976 -9.5118,10.0976 -1.0703,0 -3.2109,-2.8398 -3.2109,-4.25 0,-0.2812 1.3711,-2.0742 3.043,-3.9844 3.039,-3.457 3.0469,-3.4843 1.4492,-6.8242 -1.9297,-4.0508 -2.1328,-14.5664 -0.3594,-19.0195 1.5977,-4.0352 2.2969,-32.0508 0.8164,-32.9648 -0.6093,-0.379 -1.2695,0.4648 -1.5976,2.0507 -0.3086,1.4844 -1.8516,6.8243 -3.4024,11.8711 -3.1172,10.0703 -4.8593,19.1211 -5.1093,26.5625 -0.09,2.6563 -0.5899,5.4805 -1.1094,6.2774 -0.9883,1.5117 -2.0703,9.4336 -2.8086,20.4961 -0.24218,3.5742 -0.78128,7.0507 -1.21098,7.7304 -0.4179,0.6758 -0.8515,4.2735 -0.9492,7.9922 -0.25,9.4141 -2.1289,14.0274 -6.2695,15.3672 -2.7109,0.875 -3.3125,1.5859 -3.5625,4.1914 -0.3594,3.6641 -1.1289,3.8985 -3.6602,1.1055 -2.7578,-3.0547 -2.4296,-9.2813 0.75,-14.082 l 2.5821,-3.9024 -2.461,-1.832 c -3.1679,-2.3711 -3.1406,-5.9102 0.1993,-20.6016 2.3398,-10.2539 2.7812,-14.8672 2.5117,-26.0625 -0.059,-2.3555 0.7383,-7.3555 1.7695,-11.1055 1.0391,-3.7539 3.8594,-17.039 6.2891,-29.5195 3.6328,-18.7109 4.98038,-23.8008 7.66008,-28.9687 4.7696,-9.168 6.1524,-9.918 19.6797,-10.7227 11.0899,-0.6601 15.8516,-1.6836 17.082,-3.6797 0.3282,-0.5469 -1.7617,-4.9297 -4.6718,-9.7461 -5.7383,-9.5273 -7.0508,-13.375 -5.5196,-16.2383 0.9414,-1.75 0.5821,-1.8671 -6.289,-2.0273 -6.6016,-0.1523 -7.3399,0.02 -7.8008,1.8008 -0.5781,2.2109 -1.8399,2.5937 -2.5,0.7656 -0.2695,-0.7773 -1.168,-0.2851 -2.5,1.375 -1.8516,2.293 -2.4414,2.4844 -5.1992,1.6914 -3.8594,-1.1055 -3.8594,-1.1055 -3.1289,0.07 0.3281,0.5313 0.1797,0.9649 -0.3203,0.9649 -0.5118,0 -1.1915,-0.6953 -1.5196,-1.5469 -0.3633,-0.9492 -1.20308,-1.3164 -2.15228,-0.9531 -1.0196,0.3906 -3,-0.7305 -5.6992,-3.2188 -2.2813,-2.1015 -6.3008,-4.9101 -8.9414,-6.2461 -2.6407,-1.3398 -5.0704,-3.1484 -5.4102,-4.0273 -0.3477,-0.9102 -1.2188,-1.3594 -2.0391,-1.043 -0.789,0.3047 -2.6093,-0.5508 -4.0898,-1.9336 -1.4688,-1.3633 -3.8711,-3.332 -5.3281,-4.375 l -2.6524,-1.89844 -0.01,3.20314 c 0,1.7656 -0.6719,4.4805 -1.4805,6.0391 -1.3711,2.6093 -1.2109,4.8711 2.0196,28.9726 3.0508,22.7696 4.0976,28.0782 8.1289,41.1172 2.5508,8.2344 5.7109,17.5 7.039,20.5899 l 2.4102,5.625 -0.457,25.7656 c -0.4102,22.668 -0.7305,26.875 -2.7032,34.9453 -2.2187,9.0859 -2.2265,9.5117 -1.4179,43.4648 1.6914,70.4766 8.0781,113.8008 18.7812,127.2032 1.4766,1.8593 4.91798,4.414 7.62888,5.6718 l 4.9297,2.2852 3.1289,-3.0313 c 2.1524,-2.0781 4.0703,-3.0312 6.1406,-3.0312 3.6211,0 4.9688,1.7773 4.1915,5.5 -0.5196,2.4414 -0.3829,2.6445 1.1601,1.7852 1.0274,-0.5821 2.6094,-0.6407 3.8984,-0.1485 2.8907,1.0938 33.9297,6.4844 41.9219,7.2735 6.1289,0.6093 6.3399,0.5546 7.4571,-1.9024 1.0429,-2.2695 1.6796,-2.5273 6.371,-2.5273 6.0313,0 8.5196,1.8125 6.6407,4.8242 -1.7696,2.8398 1.2383,3.2305 5.6211,0.7265 3.5195,-2.0195 3.9687,-2.0664 6.4492,-0.6835 1.4687,0.8164 3.6875,3.3164 4.918,5.5546 l 2.25,4.0664 H 990.90592 c -107.4101,0 -118.8203,-0.1445 -119.3594,-1.5273 h 0.012"
         id="path3" /></g></g></svg>
